<svg xmlns="http://www.w3.org/2000/svg" id="svg1" width="512" height="512" fill="#fff" viewBox="0 -960 512 512"><path id="path1" d="M256-651.368q-26.316 0-44.737-18.421-18.42-18.422-18.42-44.737v-126.316q0-26.316 18.42-44.737T256-904t44.737 18.421 18.42 44.737v126.316q0 26.315-18.42 44.737-18.421 18.42-44.737 18.42M234.947-504v-64.737q-54.736-7.368-90.526-48.947t-35.79-96.842h42.106q0 43.684 30.79 74.473T256-609.263t74.474-30.79 30.79-74.473h42.104q0 55.263-35.789 96.842t-90.526 48.947V-504ZM256-693.474q8.947 0 15-6.052 6.053-6.053 6.053-15v-126.316q0-8.947-6.053-15t-15-6.053-15 6.053-6.053 15v126.316q0 8.947 6.053 15 6.053 6.052 15 6.052" style="stroke-width:.526316"/><path id="rect1-5" d="M221.421-872.389h69.387v188.885h-69.387z" style="fill:#fff;stroke:#fff;stroke-width:1.1148;paint-order:markers fill stroke"/><path id="rect1" d="M221.192-861.895h69.615v167.896h-69.615z" style="fill:#fff;stroke:#fff;stroke-width:1.05276;paint-order:markers fill stroke"/><g id="g2" style="fill:#f36;fill-opacity:1" transform="rotate(45 427.91 -719.971)scale(.89758)"><rect id="rect2-2" width="39.764" height="170.1" x="698.478" y="204.591" rx="4.473" ry="14.352" style="fill:#f36;fill-opacity:1;stroke:#000;stroke-width:.236108;stroke-opacity:0;paint-order:markers fill stroke" transform="rotate(-90)"/><rect id="rect2-5-9" width="39.764" height="170.1" x="269.759" y="-803.409" rx="4.473" ry="14.352" style="fill:#f36;fill-opacity:1;stroke:#000;stroke-width:.236108;stroke-opacity:0;paint-order:markers fill stroke"/></g></svg>