<svg xmlns="http://www.w3.org/2000/svg" xml:space="preserve" id="svg1" width="512" height="512" viewBox="0 0 135.467 135.467"><defs id="defs1"><clipPath id="clipPath8" clipPathUnits="userSpaceOnUse"><path id="lpe_path-effect8" d="M9.817 23.046H125.65v89.375H9.817ZM34.03 36.645c-5.881 0-10.615 4.71-10.615 10.56v41.056c0 5.85 4.734 10.56 10.615 10.56h67.405c5.88 0 10.615-4.71 10.615-10.56V47.206c0-5.851-4.734-10.561-10.615-10.561z" style="fill:#000;stroke-width:.0928058;stroke-dasharray:none;paint-order:markers fill stroke"/></clipPath></defs><g id="layer1"><g id="g1"><path id="rect3" d="M32.015 28.046h71.437c9.528 0 17.198 7.08 17.198 15.875v47.625c0 8.795-7.67 15.875-17.198 15.875H32.015c-9.528 0-17.198-7.08-17.198-15.875V43.92c0-8.795 7.67-15.875 17.198-15.875" clip-path="url(#clipPath8)" style="fill:#fff;stroke-width:.11458;stroke-dasharray:none;paint-order:markers fill stroke" transform="rotate(-90 70.958 70.958)"/><rect id="rect3-2-3" width="14.288" height="44.979" x="-109.901" y="45.244" rx="3.175" ry="3.175" style="fill:#d70a53;fill-opacity:1;stroke-width:.0316913;stroke-dasharray:none;paint-order:markers fill stroke" transform="rotate(-90)"/><rect id="rect9" width="21.497" height="31.75" x="-29.865" y="51.858" rx="3.969" ry="3.969" style="fill:#fff;stroke-width:.496236;stroke-dasharray:none;paint-order:markers fill stroke" transform="rotate(-90)"/></g></g></svg>