<?xml version="1.0" encoding="UTF-8" standalone="no"?>
<!-- Created with Inkscape (http://www.inkscape.org/) -->

<svg
   width="512"
   height="512"
   viewBox="0 0 135.46669 135.46669"
   version="1.1"
   id="svg1"
   xml:space="preserve"
   inkscape:export-filename="../Battery/0.png"
   inkscape:export-xdpi="96"
   inkscape:export-ydpi="96"
   sodipodi:docname="0.svg"
   inkscape:version="1.4 (e7c3feb, 2024-10-09)"
   xmlns:inkscape="http://www.inkscape.org/namespaces/inkscape"
   xmlns:sodipodi="http://sodipodi.sourceforge.net/DTD/sodipodi-0.dtd"
   xmlns="http://www.w3.org/2000/svg"
   xmlns:svg="http://www.w3.org/2000/svg"><sodipodi:namedview
     id="namedview1"
     pagecolor="#444444"
     bordercolor="#000000"
     borderopacity="0.25"
     inkscape:showpageshadow="2"
     inkscape:pageopacity="0.0"
     inkscape:pagecheckerboard="false"
     inkscape:deskcolor="#d1d1d1"
     inkscape:document-units="px"
     showgrid="false"
     showguides="true"
     inkscape:zoom="1"
     inkscape:cx="276.5"
     inkscape:cy="244.5"
     inkscape:window-width="1852"
     inkscape:window-height="1066"
     inkscape:window-x="61"
     inkscape:window-y="7"
     inkscape:window-maximized="1"
     inkscape:current-layer="layer1"><inkscape:grid
       id="grid1"
       units="mm"
       originx="0"
       originy="0"
       spacingx="0.99999998"
       spacingy="1"
       empcolor="#0099e5"
       empopacity="0.30196078"
       color="#0099e5"
       opacity="0.14901961"
       empspacing="5"
       enabled="true"
       visible="false" /></sodipodi:namedview><defs
     id="defs1"><inkscape:path-effect
       effect="powerclip"
       message=""
       id="path-effect8"
       is_visible="true"
       lpeversion="1"
       inverse="true"
       flatten="false"
       hide_clip="false" /><clipPath
       clipPathUnits="userSpaceOnUse"
       id="clipPath8"><rect
         style="display:none;fill:#000000;stroke-width:0.0928058;stroke-dasharray:none;paint-order:markers fill stroke"
         id="rect8"
         width="88.635429"
         height="62.177094"
         x="23.415628"
         y="36.644798"
         ry="10.560864"
         rx="10.615022"
         d="m 34.03065,36.644798 h 67.40539 c 5.88072,0 10.61502,4.710146 10.61502,10.560865 v 41.055364 c 0,5.850719 -4.7343,10.560865 -10.61502,10.560865 H 34.03065 c -5.880722,0 -10.615022,-4.710146 -10.615022,-10.560865 V 47.205663 c 0,-5.850719 4.7343,-10.560865 10.615022,-10.560865 z" /><path
         id="lpe_path-effect8"
         style="fill:#000000;stroke-width:0.0928058;stroke-dasharray:none;paint-order:markers fill stroke"
         class="powerclip"
         d="M 9.8166676,23.045835 H 125.65002 V 112.42085 H 9.8166676 Z M 34.03065,36.644798 c -5.880722,0 -10.615022,4.710146 -10.615022,10.560865 v 41.055364 c 0,5.850719 4.7343,10.560865 10.615022,10.560865 h 67.40539 c 5.88072,0 10.61502,-4.710146 10.61502,-10.560865 V 47.205663 c 0,-5.850719 -4.7343,-10.560865 -10.61502,-10.560865 z" /></clipPath></defs><g
     inkscape:label="Layer 1"
     inkscape:groupmode="layer"
     id="layer1"><g
       id="g1"><path
         style="fill:#ffffff;stroke-width:0.11458;stroke-dasharray:none;paint-order:markers fill stroke"
         id="rect3"
         width="105.83335"
         height="79.375015"
         x="14.816668"
         y="28.045835"
         ry="15.875002"
         rx="17.19792"
         clip-path="url(#clipPath8)"
         sodipodi:type="rect"
         d="M 32.014587,28.045835 H 103.4521 c 9.52765,0 17.19792,7.080251 17.19792,15.875002 v 47.625012 c 0,8.794751 -7.67027,15.875001 -17.19792,15.875001 H 32.014587 c -9.527647,0 -17.197919,-7.08025 -17.197919,-15.875001 V 43.920837 c 0,-8.794751 7.670272,-15.875002 17.197919,-15.875002 z"
         inkscape:path-effect="#path-effect8"
         transform="rotate(-90,70.957952,70.95795)" /><rect
         style="fill:#ffffff;stroke-width:0.496236;stroke-dasharray:none;paint-order:markers fill stroke"
         id="rect9"
         width="21.497389"
         height="31.750004"
         x="-29.864841"
         y="51.858345"
         rx="3.9687507"
         ry="3.9687505"
         transform="rotate(-90)" /></g></g></svg>
