<?xml version="1.0" encoding="UTF-8" standalone="no"?>
<svg
  width="512px"
  height="512px"
  viewBox="0 0 512 512"
  fill="none"
  version="1.1"
  id="svg1"
  sodipodi:docname="Bullseye_Arrow.svg"
  inkscape:export-filename="../Calendar/Bullseye_Arrow.png"
  inkscape:export-xdpi="96"
  inkscape:export-ydpi="96"
  inkscape:version="1.4 (e7c3feb, 2024-10-09)"
  xmlns:inkscape="http://www.inkscape.org/namespaces/inkscape"
  xmlns:sodipodi="http://sodipodi.sourceforge.net/DTD/sodipodi-0.dtd"
  xmlns="http://www.w3.org/2000/svg"
  xmlns:svg="http://www.w3.org/2000/svg"
>
  <defs
    id="defs1"
  />
  <sodipodi:namedview
    id="namedview1"
    pagecolor="#ffffff"
    bordercolor="#000000"
    borderopacity="0.25"
    inkscape:showpageshadow="2"
    inkscape:pageopacity="0.0"
    inkscape:pagecheckerboard="true"
    inkscape:deskcolor="#d1d1d1"
    inkscape:zoom="1"
    inkscape:cx="200"
    inkscape:cy="200"
    inkscape:window-width="1852"
    inkscape:window-height="1066"
    inkscape:window-x="61"
    inkscape:window-y="7"
    inkscape:window-maximized="1"
    inkscape:current-layer="svg1"
  />
  <path
    d="M 256,56 A 200,200 0 0 0 56,256 200,200 0 0 0 256,456 200,200 0 0 0 456,256 c 0,-23.2 -4.2,-46.2 -12.2,-67.8 l -32,32 C 414.6,232 416,244 416,256 A 160,160 0 0 1 256,416 160,160 0 0 1 96,256 160,160 0 0 1 256,96 c 12,0 24,1.4 35.8,4.2 L 324,68 C 302.2,60.2 279.2,56 256,56 m 140,0 -80,80 v 30 l -51,51 c -3,-1 -6,-1 -9,-1 a 40,40 0 0 0 -40,40 40,40 0 0 0 40,40 40,40 0 0 0 40,-40 c 0,-3 0,-6 -1,-9 l 51,-51 h 30 l 80,-80 H 396 Z M 256,136 A 120,120 0 0 0 136,256 120,120 0 0 0 256,376 120,120 0 0 0 376,256 h -40 a 80,80 0 0 1 -80,80 80,80 0 0 1 -80,-80 80,80 0 0 1 80,-80 z"
    id="path1"
    style="stroke-width:20;fill:#ffffff"
  />
</svg>