<?xml version="1.0" encoding="UTF-8" standalone="no"?>
<svg
  width="512px"
  height="512px"
  viewBox="0 -960 512 512"
  fill="#ffffff"
  version="1.1"
  id="svg1"
  sodipodi:docname="Deafened.svg"
  inkscape:export-filename="../Media/Deafened.png"
  inkscape:export-xdpi="96"
  inkscape:export-ydpi="96"
  inkscape:version="1.4 (e7c3feb, 2024-10-09)"
  xmlns:inkscape="http://www.inkscape.org/namespaces/inkscape"
  xmlns:sodipodi="http://sodipodi.sourceforge.net/DTD/sodipodi-0.dtd"
  xmlns="http://www.w3.org/2000/svg"
  xmlns:svg="http://www.w3.org/2000/svg">
  <defs
    id="defs1" />
  <sodipodi:namedview
    id="namedview1"
    pagecolor="#ffffff"
    bordercolor="#000000"
    borderopacity="0.25"
    inkscape:showpageshadow="2"
    inkscape:pageopacity="0.0"
    inkscape:pagecheckerboard="true"
    inkscape:deskcolor="#d1d1d1"
    inkscape:zoom="1"
    inkscape:cx="200"
    inkscape:cy="199.5"
    inkscape:window-width="1852"
    inkscape:window-height="1066"
    inkscape:window-x="61"
    inkscape:window-y="7"
    inkscape:window-maximized="1"
    inkscape:current-layer="svg1"
    showgrid="false" />
  <path
    d="M 189.33334,-504 H 100.44445 Q 82.111112,-504 69.055552,-517.05555 56,-530.11111 56,-548.44445 V -704 q 0,-41.66666 15.833336,-78.05555 15.833328,-36.3889 42.777774,-63.33334 26.94444,-26.94445 63.33334,-42.77777 Q 214.33334,-904 256,-904 q 41.66666,0 78.05555,15.83334 36.3889,15.83332 63.33334,42.77777 26.94445,26.94444 42.77777,63.33334 Q 456,-745.66666 456,-704 v 155.55555 q 0,18.33334 -13.05555,31.3889 Q 429.88889,-504 411.55555,-504 h -88.88889 v -177.77778 h 88.88889 V -704 q 0,-65 -45.27777,-110.27778 Q 321,-859.55555 256,-859.55555 q -65,0 -110.27778,45.27777 Q 100.44445,-769 100.44445,-704 v 22.22222 h 88.88889 z m -44.44445,-133.33334 h -44.44444 v 88.88889 h 44.44444 z m 222.22222,0 v 88.88889 h 44.44444 v -88.88889 z m -222.22222,0 h -44.44444 z m 222.22222,0 h 44.44444 z"
    id="path1"
    style="stroke-width:0.555555" />
  <g
    id="g2"
    transform="matrix(-0.63468675,0.63468675,-0.63468675,-0.63468675,-16.102212,-1232.6532)"
    style="fill:#d70a53;fill-opacity:1">
    <rect
      style="fill:#d70a53;fill-opacity:1;stroke:#000000;stroke-width:0.236108;stroke-opacity:0;paint-order:markers fill stroke"
      id="rect2-2"
      width="39.763893"
      height="170.09955"
      x="698.47754"
      y="204.59081"
      rx="4.4734383"
      ry="14.352148"
      transform="rotate(-90)" />
    <rect
      style="fill:#d70a53;fill-opacity:1;stroke:#000000;stroke-width:0.236108;stroke-opacity:0;paint-order:markers fill stroke"
      id="rect2-5-9"
      width="39.763893"
      height="170.09955"
      x="269.75861"
      y="-803.40924"
      rx="4.4734383"
      ry="14.352148" />
  </g>
  <rect
    style="fill:#ffffff;fill-opacity:1;stroke:#ffffff;stroke-width:1.35307;paint-order:markers fill stroke"
    id="rect1-5-8"
    width="44.444439"
    height="88.888893"
    x="367.11111"
    y="-637.33337" />
  <rect
    style="fill:#ffffff;fill-opacity:1;stroke:#ffffff;stroke-width:1.35307;paint-order:markers fill stroke"
    id="rect1-9"
    width="44.444439"
    height="88.888893"
    x="100.44445"
    y="-637.33337" />
  <rect
    style="fill:#ffffff;fill-opacity:1;stroke:#ffffff;stroke-width:2.2907;paint-order:markers fill stroke"
    id="rect1-0"
    width="86.137901"
    height="131.45293"
    x="79.59771"
    y="-658.61536" />
  <rect
    style="fill:#ffffff;fill-opacity:1;stroke:#ffffff;stroke-width:2.2907;paint-order:markers fill stroke"
    id="rect1-0-5"
    width="86.137901"
    height="131.45293"
    x="346.26437"
    y="-658.61536" />
</svg>