<?xml version="1.0" encoding="UTF-8" standalone="no"?>
<svg
   height="512"
   viewBox="0 -960 512 512"
   width="512"
   fill="#ffffff"
   version="1.1"
   id="svg1"
   sodipodi:docname="Power_Off.svg"
   inkscape:version="1.4 (e7c3feb, 2024-10-09)"
   xmlns:inkscape="http://www.inkscape.org/namespaces/inkscape"
   xmlns:sodipodi="http://sodipodi.sourceforge.net/DTD/sodipodi-0.dtd"
   xmlns="http://www.w3.org/2000/svg"
   xmlns:svg="http://www.w3.org/2000/svg">
  <defs
     id="defs1" />
  <sodipodi:namedview
     id="namedview1"
     pagecolor="#ffffff"
     bordercolor="#000000"
     borderopacity="0.25"
     inkscape:showpageshadow="2"
     inkscape:pageopacity="0.0"
     inkscape:pagecheckerboard="true"
     inkscape:deskcolor="#d1d1d1"
     showgrid="false"
     inkscape:zoom="0.55794271"
     inkscape:cx="404.16336"
     inkscape:cy="156.82614"
     inkscape:window-width="1852"
     inkscape:window-height="1066"
     inkscape:window-x="61"
     inkscape:window-y="7"
     inkscape:window-maximized="1"
     inkscape:current-layer="svg1" />
  <path
     d="m 256,-504 q -41.5,0 -78,-15.75 -36.5,-15.75 -63.5,-42.75 -27,-27 -42.75,-63.5 Q 56,-662.5 56,-704 q 0,-42 15.75,-78.25 15.75,-36.25 42.75,-63.25 l 28,28 q -22,22 -34.25,51 -12.25,29 -12.25,62.5 0,67 46.5,113.5 46.5,46.5 113.5,46.5 67,0 113.5,-46.5 Q 416,-637 416,-704 q 0,-33.5 -12.25,-62.5 -12.25,-29 -34.25,-51 l 28,-28 q 27,27 42.75,63.25 Q 456,-746 456,-704 q 0,41.5 -15.75,78 -15.75,36.5 -42.75,63.5 -27,27 -63.5,42.75 -36.5,15.75 -78,15.75 z m -20,-180 v -220 h 40 v 220 z"
     id="path1"
     style="stroke-width:0.5" />
</svg>
