<?xml version="1.0" encoding="UTF-8" standalone="no"?>
<svg
   height="512"
   viewBox="0 -960 512 512"
   width="512"
   fill="#ffffff"
   version="1.1"
   id="svg1"
   sodipodi:docname="Reboot.svg"
   inkscape:export-filename="../Power_Menu/Reboot.png"
   inkscape:export-xdpi="96"
   inkscape:export-ydpi="96"
   inkscape:version="1.4 (e7c3feb, 2024-10-09)"
   xmlns:inkscape="http://www.inkscape.org/namespaces/inkscape"
   xmlns:sodipodi="http://sodipodi.sourceforge.net/DTD/sodipodi-0.dtd"
   xmlns="http://www.w3.org/2000/svg"
   xmlns:svg="http://www.w3.org/2000/svg">
  <defs
     id="defs1" />
  <sodipodi:namedview
     id="namedview1"
     pagecolor="#ffffff"
     bordercolor="#000000"
     borderopacity="0.25"
     inkscape:showpageshadow="2"
     inkscape:pageopacity="0.0"
     inkscape:pagecheckerboard="true"
     inkscape:deskcolor="#d1d1d1"
     showgrid="false"
     inkscape:zoom="0.80194011"
     inkscape:cx="172.08267"
     inkscape:cy="236.30193"
     inkscape:window-width="1866"
     inkscape:window-height="1080"
     inkscape:window-x="54"
     inkscape:window-y="0"
     inkscape:window-maximized="1"
     inkscape:current-layer="svg1" />
  <path
     d="m 56,-504 v -50 h 68.75 l -10,-8.75 Q 82.25,-591.5 69.125,-628.375 56,-665.25 56,-702.75 56,-772.125 97.5625,-826.1875 139.125,-880.25 206,-897.75 v 52.5 q -45,16.25 -72.5,55.3125 -27.5,39.0625 -27.5,87.1875 0,28.125 10.625,54.6875 Q 127.25,-621.5 149.75,-599 l 6.25,6.25 V -654 h 50 v 150 z m 250,-6.25 v -52.5 Q 351,-579 378.5,-618.0625 406,-657.125 406,-705.25 406,-733.375 395.375,-759.9375 384.75,-786.5 362.25,-809 L 356,-815.25 V -754 h -50 v -150 h 150 v 50 h -68.75 l 10,8.75 q 30.625,30.625 44.6875,66.5625 Q 456,-742.75 456,-705.25 q 0,69.375 -41.5625,123.4375 Q 372.875,-527.75 306,-510.25 Z"
     id="path1"
     style="stroke-width:0.625" />
</svg>
