<?xml version="1.0" encoding="UTF-8" standalone="no"?>
<svg
  height="512"
  viewBox="0 -960 512 512"
  width="512"
  fill="#ffffff"
  version="1.1"
  id="svg1"
  sodipodi:docname="Reboot.svg"
  inkscape:export-filename="../Power_Menu/Reboot.png"
  inkscape:export-xdpi="96"
  inkscape:export-ydpi="96"
  inkscape:version="1.4 (e7c3feb, 2024-10-09)"
  xmlns:inkscape="http://www.inkscape.org/namespaces/inkscape"
  xmlns:sodipodi="http://sodipodi.sourceforge.net/DTD/sodipodi-0.dtd"
  xmlns="http://www.w3.org/2000/svg"
  xmlns:svg="http://www.w3.org/2000/svg"
>
  <defs
    id="defs1"
  />
  <sodipodi:namedview
    id="namedview1"
    pagecolor="#ffffff"
    bordercolor="#000000"
    borderopacity="0.25"
    inkscape:showpageshadow="2"
    inkscape:pageopacity="0.0"
    inkscape:pagecheckerboard="true"
    inkscape:deskcolor="#d1d1d1"
    showgrid="false"
    inkscape:zoom="1.5781003"
    inkscape:cx="266.77645"
    inkscape:cy="263.29125"
    inkscape:window-width="1852"
    inkscape:window-height="1066"
    inkscape:window-x="61"
    inkscape:window-y="7"
    inkscape:window-maximized="1"
    inkscape:current-layer="svg1"
  />
  <path
    id="path1"
    style="stroke-width:0.5"
    d="m 256,-904 c -33,0 -63.33333,7.25 -91,21.75 -27.66667,14.5 -50.66667,33.91667 -69,58.25 v -40 H 56 v 120 h 120 v -40 h -58 c 14,-24 33.08333,-43.25 57.25,-57.75 24.16667,-14.5 51.08333,-21.75 80.75,-21.75 44.66667,0 82.5,15.5 113.5,46.5 31,31 46.5,68.83333 46.5,113.5 0,44.66667 -15.5,82.5 -46.5,113.5 -31,31 -68.83333,46.5 -113.5,46.5 -22,0 -42.75,-4.25 -62.25,-12.75 -19.5,-8.5 -36.5,-20 -51,-34.5 -14.5,-14.5 -25.91667,-31.5 -34.25,-51 C 100.16667,-661.25 96,-682 96,-704 H 56 c 0,27.66667 5.25,53.66667 15.75,78 10.5,24.33333 24.75,45.5 42.75,63.5 18,18 39.16667,32.25 63.5,42.75 24.33333,10.5 50.33333,15.75 78,15.75 27.66667,0 53.66667,-5.25 78,-15.75 24.33333,-10.5 45.5,-24.75 63.5,-42.75 18,-18 32.25,-39.16667 42.75,-63.5 10.5,-24.33333 15.75,-50.33333 15.75,-78 0,-27.66667 -5.25,-53.66667 -15.75,-78 -10.5,-24.33333 -24.75,-45.5 -42.75,-63.5 -18,-18 -39.16667,-32.25 -63.5,-42.75 -24.33333,-10.5 -50.33333,-15.75 -78,-15.75 z"
  />
</svg>