<?xml version="1.0" encoding="UTF-8" standalone="no"?>
<svg
   height="512"
   viewBox="0 -960 512 512"
   width="512"
   fill="#ffffff"
   version="1.1"
   id="svg1"
   sodipodi:docname="Suspend.svg"
   inkscape:version="1.4 (e7c3feb, 2024-10-09)"
   xmlns:inkscape="http://www.inkscape.org/namespaces/inkscape"
   xmlns:sodipodi="http://sodipodi.sourceforge.net/DTD/sodipodi-0.dtd"
   xmlns="http://www.w3.org/2000/svg"
   xmlns:svg="http://www.w3.org/2000/svg">
  <defs
     id="defs1" />
  <sodipodi:namedview
     id="namedview1"
     pagecolor="#ffffff"
     bordercolor="#000000"
     borderopacity="0.25"
     inkscape:showpageshadow="2"
     inkscape:pageopacity="0.0"
     inkscape:pagecheckerboard="true"
     inkscape:deskcolor="#d1d1d1"
     inkscape:zoom="0.25"
     inkscape:cx="10"
     inkscape:cy="10"
     inkscape:window-width="1852"
     inkscape:window-height="1066"
     inkscape:window-x="61"
     inkscape:window-y="7"
     inkscape:window-maximized="1"
     inkscape:current-layer="svg1" />
  <path
     d="m 258,-504 q -42,0 -78.75,-16 -36.75,-16 -64,-43.25 Q 88,-590.5 72,-627.25 56,-664 56,-706 56,-779 102.5,-834.75 149,-890.5 221,-904 q -9,49.5 5.5,96.75 14.5,47.25 50,82.75 35.5,35.5 82.75,50 47.25,14.5 96.75,5.5 -13,72 -69,118.5 -56,46.5 -129,46.5 z m 0,-40 q 44,0 81.5,-22 37.5,-22 59,-60.5 -43,-4 -81.5,-21.75 -38.5,-17.75 -69,-48.25 -30.5,-30.5 -48.5,-69 -18,-38.5 -21.5,-81.5 -38.5,21.5 -60.25,59.25 Q 96,-750 96,-706 q 0,67.5 47.25,114.75 Q 190.5,-544 258,-544 Z m -10,-152.5 z"
     id="path1"
     style="stroke-width:0.5" />
</svg>
