<svg xmlns="http://www.w3.org/2000/svg" id="svg1" width="512" height="512" fill="none" viewBox="0 0 512 512"><path id="path1" d="M256 56A200 200 0 0 0 56 256a200 200 0 0 0 200 200 200 200 0 0 0 200-200c0-23.2-4.2-46.2-12.2-67.8l-32 32C414.6 232 416 244 416 256a160 160 0 0 1-160 160A160 160 0 0 1 96 256 160 160 0 0 1 256 96c12 0 24 1.4 35.8 4.2L324 68c-21.8-7.8-44.8-12-68-12m140 0-80 80v30l-51 51c-3-1-6-1-9-1a40 40 0 0 0-40 40 40 40 0 0 0 40 40 40 40 0 0 0 40-40c0-3 0-6-1-9l51-51h30l80-80h-60Zm-140 80a120 120 0 0 0-120 120 120 120 0 0 0 120 120 120 120 0 0 0 120-120h-40a80 80 0 0 1-80 80 80 80 0 0 1-80-80 80 80 0 0 1 80-80z" style="stroke-width:20;fill:#fff"/></svg>