<svg xmlns="http://www.w3.org/2000/svg" id="svg1" width="512" height="512" fill="#fff" viewBox="0 -960 512 512"><path id="path1" d="M189.333-504h-88.889q-18.333 0-31.388-13.056T56-548.444V-704q0-41.667 15.833-78.056t42.778-63.333 63.333-42.778Q214.334-904 256-904q41.667 0 78.056 15.833t63.333 42.778 42.778 63.333Q456-745.666 456-704v155.556q0 18.333-13.056 31.388T411.556-504h-88.89v-177.778h88.89V-704q0-65-45.278-110.278T256-859.556t-110.278 45.278T100.444-704v22.222h88.89zM144.89-637.333h-44.445v88.889h44.445zm222.222 0v88.889h44.445v-88.89zm-222.222 0h-44.445zm222.222 0h44.445z" style="stroke-width:.555555"/><path id="rect1-5" d="M367.111-637.333h44.444v88.889h-44.444z" style="fill:#fff;fill-opacity:1;stroke:#fff;stroke-width:1.35307;paint-order:markers fill stroke"/><path id="rect1" d="M100.444-637.333h44.444v88.889h-44.444z" style="fill:#fff;fill-opacity:1;stroke:#fff;stroke-width:1.35307;paint-order:markers fill stroke"/><path id="rect1-0" d="M79.598-658.615h86.138v131.453H79.598z" style="fill:#fff;fill-opacity:1;stroke:#fff;stroke-width:2.2907;paint-order:markers fill stroke"/><path id="rect1-0-5" d="M346.264-658.615h86.138v131.453h-86.138z" style="fill:#fff;fill-opacity:1;stroke:#fff;stroke-width:2.2907;paint-order:markers fill stroke"/></svg>